<?xml version="1.0" standalone="no"?>
<!DOCTYPE svg PUBLIC "-//W3C//DTD SVG 20010904//EN"
 "http://www.w3.org/TR/2001/REC-SVG-20010904/DTD/svg10.dtd">
<svg version="1.0" xmlns="http://www.w3.org/2000/svg"
 width="512.000000pt" height="512.000000pt" viewBox="0 0 512.000000 512.000000"
 preserveAspectRatio="xMidYMid meet">
<metadata>
Created by potrace 1.14, written by Peter Selinger 2001-2017
</metadata>
<g transform="translate(0.000000,512.000000) scale(0.100000,-0.100000)"
fill="#000000" stroke="none">
<path d="M2489 4865 c-25 -7 -75 -26 -110 -42 -35 -17 -116 -54 -179 -83 -63
-29 -140 -63 -170 -77 -30 -14 -98 -44 -150 -68 -52 -23 -139 -63 -193 -89
-54 -25 -100 -46 -102 -46 -1 0 -41 -17 -87 -39 -45 -21 -123 -56 -173 -79
-49 -22 -121 -54 -160 -72 -38 -18 -113 -51 -165 -75 -90 -41 -139 -63 -310
-140 l-75 -34 -180 -3 c-170 -3 -183 -5 -237 -30 -75 -35 -119 -76 -159 -151
l-34 -62 0 -1640 0 -1640 22 -47 c42 -92 138 -172 233 -194 57 -13 4536 -12
4595 1 104 24 193 96 238 193 l22 47 0 1640 0 1640 -34 63 c-38 70 -92 120
-167 154 -44 20 -69 23 -229 26 -195 4 -173 -1 -343 78 -40 19 -74 34 -76 34
-2 0 -42 18 -88 39 -45 21 -175 80 -288 131 -113 51 -234 106 -270 122 -36 17
-236 108 -445 203 -209 95 -409 186 -445 202 -101 47 -165 57 -241 38z m143
-217 c61 -42 59 -149 -4 -190 -43 -27 -72 -29 -119 -5 -77 39 -91 129 -28 188
44 41 98 44 151 7z m-385 -150 c12 -84 72 -169 150 -215 101 -59 214 -61 316
-6 84 47 133 114 164 229 l8 32 360 -164 c198 -90 369 -168 380 -173 11 -6 47
-22 80 -37 154 -68 300 -136 304 -140 2 -2 -650 -4 -1450 -3 l-1454 1 50 23
c28 13 75 35 105 49 30 14 136 61 235 106 99 45 198 90 220 100 44 21 269 122
355 161 30 13 79 36 110 50 30 14 56 25 58 24 2 -2 6 -18 9 -37z m2615 -703
c62 -45 58 68 58 -1662 0 -1775 7 -1627 -75 -1668 -40 -20 -60 -20 -2295 -20
l-2256 0 -33 24 c-65 47 -61 -64 -61 1667 0 1418 2 1579 16 1609 16 35 45 59
79 68 11 3 1037 4 2280 3 2243 -1 2260 -1 2287 -21z"/>
<path d="M448 3603 c-14 -9 -31 -27 -37 -40 -17 -37 -15 -2830 2 -2863 27 -54
36 -55 489 -54 469 1 457 -1 479 75 11 34 10 45 -3 67 -33 56 -43 58 -426 57
l-352 0 0 1288 0 1287 1960 0 1960 0 0 -1287 0 -1288 -1196 0 -1196 0 -29 -33
c-40 -44 -40 -93 0 -133 16 -16 38 -29 48 -30 107 -7 2485 -3 2506 4 15 5 36
20 47 34 20 25 20 42 20 1440 0 1302 -1 1417 -17 1443 -9 16 -27 33 -40 39
-16 8 -644 11 -2106 11 -1918 -1 -2084 -2 -2109 -17z"/>
<path d="M1095 3068 c-73 -16 -128 -60 -164 -133 -19 -38 -20 -61 -18 -440 2
-439 2 -437 65 -501 52 -51 96 -66 206 -68 l101 -2 2 -96 c2 -142 42 -215 138
-259 36 -16 76 -18 435 -19 l395 0 51 24 c28 13 63 39 77 58 52 68 54 82 52
503 -2 426 -2 425 -62 491 -48 51 -88 65 -203 71 -58 3 -106 6 -107 7 -1 1 -3
45 -4 98 -2 138 -36 200 -134 251 -38 19 -57 20 -417 21 -208 1 -393 -2 -413
-6z m753 -202 c8 -5 12 -34 12 -86 l0 -79 -207 -3 c-199 -3 -210 -4 -246 -27
-53 -33 -76 -58 -100 -111 -17 -39 -20 -66 -21 -237 0 -125 -4 -193 -11 -194
-49 -5 -133 -3 -147 4 -17 7 -18 35 -18 367 0 301 2 360 14 367 18 10 707 10
724 -1z m379 -379 c8 -9 15 -688 6 -720 -4 -16 -28 -17 -371 -15 l-367 3 -3
364 c-1 214 2 367 7 370 15 9 718 7 728 -2z"/>
<path d="M2954 3067 c-78 -16 -136 -67 -171 -149 -8 -19 -11 -82 -10 -191 2
-134 5 -168 20 -195 34 -62 77 -100 137 -121 8 -3 261 -7 561 -8 l546 -3 52
26 c105 53 130 118 126 334 -2 159 -12 196 -72 252 -65 62 -57 61 -630 62
-287 1 -539 -2 -559 -7z m1056 -207 c6 -12 7 -218 1 -253 0 -4 -234 -6 -518
-5 l-518 3 -3 125 c-2 97 0 127 11 135 9 6 193 10 516 10 431 -1 504 -3 511
-15z"/>
<path d="M2928 2164 c-51 -16 -106 -63 -135 -117 -16 -29 -18 -66 -18 -387 0
-344 1 -356 22 -395 28 -52 58 -79 115 -105 45 -20 62 -20 585 -20 l538 1 51
23 c61 28 103 79 119 144 9 33 12 147 10 372 -2 356 -4 367 -64 429 -67 69
-38 66 -636 68 -444 1 -548 -1 -587 -13z m1080 -198 c8 -13 13 -556 5 -599
l-5 -27 -516 2 -517 3 -3 304 c-1 203 1 308 8 316 15 18 1017 18 1028 1z"/>
<path d="M1705 842 c-39 -8 -75 -53 -75 -93 0 -102 138 -139 184 -50 20 38 20
54 1 91 -22 42 -64 62 -110 52z"/>
</g>
</svg>
